Coordinates
version=1
nRows=13
nColumns=40
inDegrees=yes

Units are S.I. units (second, meters, Newtons, ...)
Angles are in degrees.

endheader
time	pelvis_tilt	pelvis_list	pelvis_rotation	pelvis_tx	pelvis_ty	pelvis_tz	hip_flexion_r	hip_adduction_r	hip_rotation_r	knee_angle_r	knee_angle_r_beta	ankle_angle_r	subtalar_angle_r	mtp_angle_r	hip_flexion_l	hip_adduction_l	hip_rotation_l	knee_angle_l	knee_angle_l_beta	ankle_angle_l	subtalar_angle_l	mtp_angle_l	lumbar_extension	lumbar_bending	lumbar_rotation	arm_flex_r	arm_add_r	arm_rot_r	elbow_flex_r	pro_sup_r	wrist_flex_r	wrist_dev_r	arm_flex_l	arm_add_l	arm_rot_l	elbow_flex_l	pro_sup_l	wrist_flex_l	wrist_dev_l
      6.12128571	     -5.13096466	     -6.20987480	      4.96127424	      1.04540322	      0.91140021	      0.49086246	     -4.23166787	      5.66012688	    -16.97328672	      8.37545517	      8.37545517	     18.79462284	      5.79053508	     -2.86442801	     34.84584744	     -7.22031958	     -2.95529345	     16.64595363	     16.64595363	      4.09034434	     -6.54548929	      5.62790361	     -7.12467367	      6.06850778	      1.94564106	     48.77099907	    -14.79976340	     -4.92981424	     81.45476175	     44.91977713	      0.00000000	      0.00000000	    -17.25929460	     -8.14289735	     14.13257008	     25.43225400	     43.52634895	      0.00000000	      0.00000000
      6.13257143	     -5.24810975	     -6.16749561	      4.75178360	      1.04693162	      0.90975685	      0.48932578	     -4.68263992	      5.42396783	    -16.81599555	      8.76608300	      8.76608300	     19.29077576	      5.97641365	     -2.73935209	     34.81665002	     -7.16046778	     -3.37475930	     17.49049811	     17.49049811	      3.17917152	     -7.97595554	      5.34400025	     -6.88297781	      6.02008025	      1.99528489	     49.16235277	    -14.56867036	     -5.00779793	     83.07962282	     44.87741975	      0.00000000	      0.00000000	    -18.24176620	     -8.02129574	     14.13708412	     25.46948458	     43.53241515	      0.00000000	      0.00000000
      6.14385714	     -5.34839130	     -6.07290284	      4.49123002	      1.04850036	      0.90823880	      0.48779453	     -5.10482787	      5.09999476	    -16.61454587	      9.24885808	      9.24885808	     19.70955154	      6.11657206	     -2.63981425	     34.81085777	     -7.10759708	     -3.72483514	     18.55378470	     18.55378470	      2.17855504	     -9.37778781	      5.13086382	     -6.69783057	      5.85194825	      2.03023305	     49.42362790	    -14.29501550	     -5.05936561	     84.54775605	     44.83740489	      0.00000000	      0.00000000	    -19.11665988	     -7.84205142	     14.15125710	     25.42795909	     43.53285625	      0.00000000	      0.00000000
      6.15514286	     -5.51194526	     -5.96035822	      4.25496308	      1.05020266	      0.90673012	      0.48600972	     -5.32504111	      4.66965952	    -16.58981497	     10.06395647	     10.06395647	     20.62734960	      6.49995002	     -1.78334032	     34.60124421	     -6.87969920	     -3.46281421	     19.12581242	     19.12581242	      0.35002482	    -11.68385194	      3.49321752	     -6.47413116	      5.73181161	      2.65985147	     48.68915715	    -14.72822049	     -5.63850990	     88.20237552	     44.76552417	      0.00000000	      0.00000000	    -19.75769907	     -7.89099347	     14.02866474	     25.92766257	     43.63860621	      0.00000000	      0.00000000
      6.16642857	     -5.54703284	     -5.87938257	      4.03373414	      1.05186391	      0.90551305	      0.48429328	     -5.68755530	      4.31885713	    -16.34635739	     10.78836685	     10.78836685	     20.99558053	      6.43988591	     -1.88091985	     34.64710009	     -6.87004040	     -3.61717202	     20.51070259	     20.51070259	     -0.26049007	    -12.68006030	      3.32845715	     -6.32051723	      5.62263662	      2.51391303	     48.74879112	    -14.31112896	     -5.60665440	     89.14333420	     44.73977153	      0.00000000	      0.00000000	    -20.31887556	     -7.65475060	     14.10944910	     25.67198135	     43.63523517	      0.00000000	      0.00000000
      6.17771429	     -5.66769278	     -5.74669197	      3.79137823	      1.05343231	      0.90442157	      0.48246383	     -5.71716097	      3.81582162	    -16.09329590	     11.96677288	     11.96677288	     21.37343820	      6.24999400	     -2.08951937	     34.74135205	     -6.75231699	     -3.47556738	     21.83836018	     21.83836018	     -0.76014678	    -13.92731818	      3.15551896	     -6.13031247	      5.45007429	      2.36210274	     48.45538976	    -13.90102764	     -5.61617437	     90.84138443	     44.69341053	      0.00000000	      0.00000000	    -20.77010827	     -7.39641178	     14.15152265	     25.45425946	     43.65089471	      0.00000000	      0.00000000
      6.18900000	     -5.71121505	     -5.54716736	      3.57844243	      1.05494451	      0.90382843	      0.48046809	     -5.71599384	      3.20706363	    -15.85789961	     13.33411772	     13.33411772	     21.51033843	      5.93284459	     -2.44752506	     34.71904801	     -6.54954007	     -3.26801844	     23.13178067	     23.13178067	     -0.90250703	    -14.95353309	      3.04849862	     -6.08316300	      5.19883255	      2.35880454	     47.80006603	    -13.76307116	     -5.72087360	     92.62355866	     44.64823375	      0.00000000	      0.00000000	    -20.87841662	     -7.28907157	     14.13274466	     25.26481518	     43.68694301	      0.00000000	      0.00000000
      6.20028571	     -5.45676064	     -5.33643249	      3.43098220	      1.05676265	      0.90410136	      0.47837974	     -6.23782663	      2.67955557	    -15.65159215	     14.30827268	     14.30827268	     21.48861651	      5.70314270	     -2.67367630	     34.28664283	     -6.37849156	     -3.22315247	     24.31743774	     24.31743774	     -0.70325102	    -15.56566827	      2.86753652	     -6.23231724	      4.93598140	      2.24739079	     47.07941945	    -13.59653845	     -5.67946105	     93.05653918	     44.63269440	      0.00000000	      0.00000000	    -20.90657576	     -7.09572034	     14.15448524	     25.19510968	     43.69123943	      0.00000000	      0.00000000
      6.21157143	     -5.64943008	     -5.10907819	      3.24453490	      1.05780110	      0.90389175	      0.47621155	     -5.49261131	      1.91725988	    -15.23006858	     16.62535852	     16.62535852	     20.90452399	      4.46382567	     -5.01646412	     34.43944089	     -6.09260290	     -2.95412550	     25.63005505	     25.63005505	      0.18251480	    -16.17537566	      4.00976208	     -6.16637692	      4.68673358	      3.09575721	     45.19344644	    -14.45581355	     -6.48937605	     97.46053468	     44.54926153	      0.00000000	      0.00000000	    -20.00036153	     -7.10284128	     13.98691938	     24.46168220	     43.84426621	      0.00000000	      0.00000000
      6.22285714	     -5.62092377	     -4.89966638	      3.08881028	      1.05899739	      0.90442364	      0.47394667	     -4.96018761	      1.15749657	    -15.00385686	     19.00758849	     19.00758849	     20.45001132	      3.63106931	     -6.04349403	     34.18179505	     -5.88047254	     -2.92168920	     26.65193792	     26.65193792	      0.93888368	    -16.46343800	      3.90771568	     -6.17379646	      4.46522048	      2.77755764	     44.22766208	    -14.09621924	     -6.41338652	     98.18376931	     44.53024332	      0.00000000	      0.00000000	    -19.67214517	     -6.93484382	     14.02596019	     24.25153098	     43.87163420	      0.00000000	      0.00000000
      6.23414286	     -5.57273369	     -4.65645643	      2.93867434	      1.06002097	      0.90537469	      0.47159863	     -4.21063314	      0.32464665	    -14.70722846	     21.75750996	     21.75750996	     19.63879144	      2.48750535	     -7.30160193	     33.76327154	     -5.61387570	     -2.92127538	     27.42770051	     27.42770051	      1.84506027	    -16.66962796	      3.91478709	     -6.23362313	      4.21716741	      2.57932830	     42.96398112	    -13.94468203	     -6.31550670	     99.07451180	     44.50318787	      0.00000000	      0.00000000	    -19.11750498	     -6.81012726	     14.01777179	     24.13377904	     43.90799902	      0.00000000	      0.00000000
      6.24542857	     -5.28290043	     -4.52033343	      2.83736151	      1.06115119	      0.90701030	      0.46922508	     -3.68468154	     -0.38083021	    -14.47810351	     24.51227313	     24.51227313	     18.58968503	      1.46006390	     -8.16416493	     32.97330539	     -5.43975292	     -2.87124895	     27.99596864	     27.99596864	      2.79329870	    -16.81394286	      3.74613001	     -6.52592826	      4.11463153	      2.29480557	     41.44789602	    -13.75695330	     -6.14866977	     99.48591302	     44.48362622	      0.00000000	      0.00000000	    -18.44569711	     -6.75771710	     13.99736371	     24.16722860	     43.93658672	      0.00000000	      0.00000000
      6.25671429	     -5.51988055	     -4.27475386	      2.63128150	      1.06154382	      0.90817287	      0.46701481	     -2.13259885	     -1.15625476	    -13.64768094	     27.67435450	     27.67435450	     15.24346517	     -1.91285233	    -14.50308012	     32.68474401	     -5.16167601	     -3.03896868	     28.44317216	     28.44317216	      4.39639844	    -16.56401556	      5.51452780	     -6.43463258	      3.86179540	      3.39912120	     38.56210756	    -14.95761321	     -7.03293233	    102.89688264	     44.44805888	      0.00000000	      0.00000000	    -16.67559598	     -6.73933142	     13.70505650	     23.16624084	     44.14892863	      0.00000000	      0.00000000
